<?xml version="1.0" encoding="utf-8"?>
<!-- Generator: Adobe Illustrator 23.0.2, SVG Export Plug-In . SVG Version: 6.00 Build 0)  -->
<svg version="1.1" id="圖層_1" xmlns="http://www.w3.org/2000/svg" xmlns:xlink="http://www.w3.org/1999/xlink" x="0px" y="0px"
	 viewBox="0 0 128.317 38.1127" enable-background="new 0 0 128.317 38.1127" xml:space="preserve">
<g>
	<g>
		<linearGradient id="SVGID_1_" gradientUnits="userSpaceOnUse" x1="-2.625" y1="38.3145" x2="41.525" y2="-4.2999">
			<stop  offset="0" style="stop-color:#A9865F"/>
			<stop  offset="0.2277" style="stop-color:#D4B686"/>
			<stop  offset="0.5123" style="stop-color:#9F7A4E"/>
			<stop  offset="0.703" style="stop-color:#D3B684"/>
			<stop  offset="1" style="stop-color:#A9865F"/>
		</linearGradient>
		<path fill="url(#SVGID_1_)" d="M18.2073,0C8.1678,0,0,8.1672,0,18.2066c0,10.0395,8.1678,18.2075,18.2073,18.2075
			s18.2068-8.168,18.2068-18.2075C36.4141,8.1672,28.2468,0,18.2073,0z M33.6771,18.2066c0,8.5306-6.9397,15.4703-15.4698,15.4703
			c-0.167,0-0.3329-0.006-0.4988-0.0123l-0.0563-0.0017c-1.6168-0.1001-3.5333-1.2327-4.4573-2.6352
			c-1.9171-2.9075-4.2082-4.9343-7.4289-6.5709c-2.078-1.0554-2.7411-3.3926-2.9514-4.688
			c-0.0421-0.4227-0.0669-0.8569-0.0741-1.2906l-0.0012-0.045c-0.0011-0.0746-0.0023-0.1505-0.0023-0.2266
			c0-8.5299,6.9397-15.4696,15.4703-15.4696C26.7374,2.737,33.6771,9.6767,33.6771,18.2066z"/>
	</g>
	<g>
		<g>
			<polygon fill="#FFFFFF" points="105.4644,10.5985 102.7623,10.5985 102.7623,26.1057 113.3877,26.1057 113.3877,23.676 
				105.4644,23.676 			"/>
			<polygon fill="#FFFFFF" points="120.466,23.6964 120.466,10.6372 117.7593,10.6372 117.7593,26.099 128.317,26.099 
				128.317,23.6964 			"/>
			<path fill="#FFFFFF" d="M96.632,23.8104c-2.5799,0.9228-3.826,0.0136-6.0792-3.2126c0.1776-0.032,0.3641-0.0714,0.55-0.1247
				c2.5432-0.7265,3.9948-2.5123,3.9824-4.8994c-0.0135-2.6515-1.4868-4.383-4.0422-4.7499
				c-1.4555-0.2092-2.801-0.2017-5.4809-0.1864c-0.8316,0.0046-1.7934,0.01-2.9288,0.01h-0.2268v15.4768h2.7387v-5.4615
				l2.3433,0.0002c1.6838,2.3927,2.8922,3.8347,3.7988,4.5343c1.0316,0.7961,2.2114,1.199,3.4073,1.199
				c0.9346,0,1.8791-0.2463,2.7697-0.7431l0.1818-0.1014l-0.8171-1.8118L96.632,23.8104z M90.1449,18.1537
				c-0.5127,0.0468-1.2688,0.0434-2.0692,0.0394l-0.2837-0.0014c-0.4169-0.0017-1.0211-0.0021-1.5656-0.0021
				c-0.427,0-0.8175,0.0002-1.0515,0.0004v-5.1426c0.4337-0.0008,0.8623-0.0042,1.2873-0.0075
				c1.1394-0.0092,2.2156-0.0175,3.3064,0.0198c1.3893,0.0476,2.3491,0.9924,2.445,2.4074
				C92.3143,16.9516,91.483,18.0314,90.1449,18.1537z"/>
			<path fill="#FFFFFF" d="M56.9081,10.5939h-2.7646l0.0003,0.2271c0.0001,0.0708,0.0083,7.1049-0.0769,10.03
				c-0.0456,1.5636-1.0876,2.7269-2.5929,2.8945c-2.0904,0.2325-3.265-0.4488-3.8104-2.2093
				c-0.0193-0.062-0.0362-0.125-0.0533-0.1878l-0.0708-0.2608l-2.6944,0.6421l0.0497,0.2188
				c0.6561,2.8914,2.694,4.4582,5.6946,4.4582c0.5495,0,1.1315-0.0526,1.7429-0.1593c2.678-0.4668,4.4571-2.5902,4.5323-5.41
				c0.0622-2.326,0.0489-7.7121,0.0447-9.4822L56.9081,10.5939z"/>
			<path fill="#FFFFFF" d="M67.902,10.5939l-6.1477,15.4767h2.7954l1.3541-3.3089h7.0151l1.3542,3.3089h2.7953l-6.1476-15.4767
				H67.902z M69.4115,13.6646l2.7185,6.8447h-5.4371L69.4115,13.6646z"/>
		</g>
		<g>
			<linearGradient id="SVGID_2_" gradientUnits="userSpaceOnUse" x1="86.6823" y1="30.2171" x2="100.4121" y2="16.4874">
				<stop  offset="0" style="stop-color:#A9865F"/>
				<stop  offset="0.2277" style="stop-color:#D4B686"/>
				<stop  offset="0.5123" style="stop-color:#9F7A4E"/>
				<stop  offset="0.703" style="stop-color:#D3B684"/>
				<stop  offset="1" style="stop-color:#A9865F"/>
			</linearGradient>
			<path fill="url(#SVGID_2_)" d="M80.3059,33.574v3.8216h2.2357v0.5713h-2.8252V33.574H80.3059z"/>
			<linearGradient id="SVGID_3_" gradientUnits="userSpaceOnUse" x1="89.3603" y1="32.8952" x2="103.0901" y2="19.1654">
				<stop  offset="0" style="stop-color:#A9865F"/>
				<stop  offset="0.2277" style="stop-color:#D4B686"/>
				<stop  offset="0.5123" style="stop-color:#9F7A4E"/>
				<stop  offset="0.703" style="stop-color:#D3B684"/>
				<stop  offset="1" style="stop-color:#A9865F"/>
			</linearGradient>
			<path fill="url(#SVGID_3_)" d="M87.8703,33.574v0.5649h-2.2662v1.3367h2.0229v0.565h-2.0229v1.355h2.3514v0.5713h-2.9409V33.574
				H87.8703z"/>
			<linearGradient id="SVGID_4_" gradientUnits="userSpaceOnUse" x1="92.4756" y1="36.0105" x2="106.2054" y2="22.2807">
				<stop  offset="0" style="stop-color:#A9865F"/>
				<stop  offset="0.2277" style="stop-color:#D4B686"/>
				<stop  offset="0.5123" style="stop-color:#9F7A4E"/>
				<stop  offset="0.703" style="stop-color:#D3B684"/>
				<stop  offset="1" style="stop-color:#A9865F"/>
			</linearGradient>
			<path fill="url(#SVGID_4_)" d="M94.7206,33.9325c0.2695,0.239,0.4039,0.573,0.4039,1.0023c0,0.2471-0.0496,0.4781-0.1488,0.693
				c-0.0992,0.2144-0.2594,0.3886-0.4798,0.5226c-0.2208,0.1335-0.4992,0.2004-0.8357,0.2004h-0.6498v1.6161h-0.5895V33.574h1.1787
				C94.0776,33.574,94.451,33.6935,94.7206,33.9325z M94.1738,35.646c0.1314-0.089,0.2259-0.1975,0.2827-0.3251
				c0.0564-0.1275,0.0848-0.2521,0.0848-0.3738c0-0.2106-0.0687-0.3979-0.2064-0.562c-0.1378-0.164-0.3526-0.2462-0.6442-0.2462
				h-0.6803v1.6406h0.6498C93.8708,35.7795,94.042,35.735,94.1738,35.646z"/>
			<linearGradient id="SVGID_5_" gradientUnits="userSpaceOnUse" x1="95.6716" y1="39.2064" x2="109.4014" y2="25.4766">
				<stop  offset="0" style="stop-color:#A9865F"/>
				<stop  offset="0.2277" style="stop-color:#D4B686"/>
				<stop  offset="0.5123" style="stop-color:#9F7A4E"/>
				<stop  offset="0.703" style="stop-color:#D3B684"/>
				<stop  offset="1" style="stop-color:#A9865F"/>
			</linearGradient>
			<path fill="url(#SVGID_5_)" d="M99.9734,37.9669l-1.0328-1.6224c-0.0327,0.0042-0.0814,0.0063-0.1463,0.0063h-0.6497v1.6161
				h-0.5895V33.574h1.1727c0.2997,0,0.5671,0.0525,0.8019,0.158c0.2348,0.1051,0.4191,0.2603,0.5531,0.465
				c0.1335,0.2043,0.2004,0.4505,0.2004,0.7378c0,0.2717-0.0597,0.5209-0.1792,0.7477c-0.1196,0.2267-0.3031,0.3988-0.5502,0.5162
				l1.1062,1.7682H99.9734z M99.4661,35.5303c0.1394-0.1661,0.2094-0.3564,0.2094-0.5709c0-0.1297-0.0293-0.2572-0.0882-0.3827
				c-0.0585-0.1259-0.1517-0.2301-0.2793-0.3132c-0.1275-0.0831-0.2886-0.1246-0.4831-0.1246h-0.6803v1.6406h0.6379
				C99.0982,35.7795,99.3262,35.6965,99.4661,35.5303z"/>
			<linearGradient id="SVGID_6_" gradientUnits="userSpaceOnUse" x1="98.3952" y1="41.93" x2="112.125" y2="28.2002">
				<stop  offset="0" style="stop-color:#A9865F"/>
				<stop  offset="0.2277" style="stop-color:#D4B686"/>
				<stop  offset="0.5123" style="stop-color:#9F7A4E"/>
				<stop  offset="0.703" style="stop-color:#D3B684"/>
				<stop  offset="1" style="stop-color:#A9865F"/>
			</linearGradient>
			<path fill="url(#SVGID_6_)" d="M105.94,33.574v0.5649h-2.2662v1.3367h2.0229v0.565h-2.0229v1.355h2.3514v0.5713h-2.9409V33.574
				H105.94z M104.6579,33.2947h-0.3645l0.5044-0.8142h0.6319L104.6579,33.2947z"/>
			<linearGradient id="SVGID_7_" gradientUnits="userSpaceOnUse" x1="101.0042" y1="44.539" x2="114.734" y2="30.8092">
				<stop  offset="0" style="stop-color:#A9865F"/>
				<stop  offset="0.2277" style="stop-color:#D4B686"/>
				<stop  offset="0.5123" style="stop-color:#9F7A4E"/>
				<stop  offset="0.703" style="stop-color:#D3B684"/>
				<stop  offset="1" style="stop-color:#A9865F"/>
			</linearGradient>
			<path fill="url(#SVGID_7_)" d="M110.3389,34.1512c-0.1785-0.0526-0.3463-0.0788-0.5044-0.0788
				c-0.239,0-0.4285,0.0534-0.5683,0.161c-0.1395,0.1072-0.2094,0.2539-0.2094,0.4404c0,0.1822,0.0818,0.331,0.2458,0.4467
				c0.1645,0.1153,0.398,0.2297,0.7019,0.3433c0.2267,0.0809,0.4183,0.1691,0.5742,0.264c0.156,0.0954,0.2857,0.2272,0.3887,0.395
				c0.1034,0.1683,0.1551,0.3819,0.1551,0.6408c0,0.2353-0.0589,0.448-0.1763,0.6383s-0.2844,0.3403-0.501,0.4497
				c-0.217,0.1093-0.4708,0.164-0.7628,0.164c-0.2713,0-0.5324-0.0436-0.7837-0.1309c-0.2513-0.0869-0.4717-0.1971-0.6624-0.3311
				l0.2615-0.4679c0.1496,0.1136,0.3301,0.2098,0.5408,0.2887c0.2106,0.0792,0.4068,0.1186,0.5891,0.1186
				c0.2352,0,0.4408-0.061,0.6171-0.1822c0.1759-0.1216,0.264-0.3018,0.264-0.5408c0-0.2026-0.0737-0.3636-0.2217-0.4832
				c-0.1479-0.1195-0.3555-0.2318-0.623-0.3373c-0.2471-0.0928-0.4526-0.184-0.6166-0.2734
				c-0.1641-0.089-0.3048-0.2115-0.4222-0.3674c-0.1174-0.156-0.1763-0.3514-0.1763-0.5862c0-0.3446,0.1204-0.623,0.3615-0.8358
				c0.2412-0.2123,0.554-0.325,0.9388-0.3369c0.4739,0,0.9134,0.1174,1.3185,0.3522l-0.2246,0.4556
				C110.6851,34.2728,110.5169,34.2038,110.3389,34.1512z"/>
			<linearGradient id="SVGID_8_" gradientUnits="userSpaceOnUse" x1="103.6658" y1="47.2007" x2="117.3956" y2="33.4709">
				<stop  offset="0" style="stop-color:#A9865F"/>
				<stop  offset="0.2277" style="stop-color:#D4B686"/>
				<stop  offset="0.5123" style="stop-color:#9F7A4E"/>
				<stop  offset="0.703" style="stop-color:#D3B684"/>
				<stop  offset="1" style="stop-color:#A9865F"/>
			</linearGradient>
			<path fill="url(#SVGID_8_)" d="M116.4813,33.574v0.5649h-2.2662v1.3367h2.0229v0.565h-2.0229v1.355h2.3514v0.5713h-2.9409V33.574
				H116.4813z"/>
			<linearGradient id="SVGID_9_" gradientUnits="userSpaceOnUse" x1="106.634" y1="50.1689" x2="120.3638" y2="36.4391">
				<stop  offset="0" style="stop-color:#A9865F"/>
				<stop  offset="0.2277" style="stop-color:#D4B686"/>
				<stop  offset="0.5123" style="stop-color:#9F7A4E"/>
				<stop  offset="0.703" style="stop-color:#D3B684"/>
				<stop  offset="1" style="stop-color:#A9865F"/>
			</linearGradient>
			<path fill="url(#SVGID_9_)" d="M122.9404,33.574v4.5387h-0.0183l-3.2265-3.2749l0.0123,3.1291h-0.5955v-4.5265h0.0305
				l3.2202,3.3114l-0.0123-3.1778H122.9404z"/>
			<linearGradient id="SVGID_10_" gradientUnits="userSpaceOnUse" x1="109.2525" y1="52.7874" x2="122.9823" y2="39.0576">
				<stop  offset="0" style="stop-color:#A9865F"/>
				<stop  offset="0.2277" style="stop-color:#D4B686"/>
				<stop  offset="0.5123" style="stop-color:#9F7A4E"/>
				<stop  offset="0.703" style="stop-color:#D3B684"/>
				<stop  offset="1" style="stop-color:#A9865F"/>
			</linearGradient>
			<path fill="url(#SVGID_10_)" d="M128.317,33.574v0.5649h-1.1787v3.828h-0.5891v-3.828h-1.1485V33.574H128.317z"/>
		</g>
	</g>
</g>
</svg>
